@startuml DocumentModel

hide empty members

class "MedComDocumentBundle" as document <<Bundle>>
class "MedComDocumentComposition" as composition <<Composition>>

class "MedComDocumentOrganization" as organization <<MedComCoreOrganization>>
class "MedComDocumentPractitioner" as practitioner <<MedComCorePractitioner>>
class "MedComDocumentPractitionerRole" as practitionerrole <<MedComCorePractitionerRole>>
class "MedComDocumentPatient" as patient <<DkCorePatient>>
class "DkCoreRelatedPerson" as relatedperson <<RelatedPerson>>
class "Device" as device
class "'Use case specific content'" as content

' Fælles abstraktion for alle, der kan være author:person
interface "AuthorPerson" as authorPerson

' --- Struktur på dokumentet ---
document -- composition : "entry"

' Composition peger på den fælles type
composition -- authorPerson : "author:person"
composition -- organization : "author:organization"
composition -- patient : "subject"
composition -- content : "section.entry"

' PractitionerRole’s egne relationer bevares
practitionerrole -- practitioner : "practitioner"
practitionerrole -- organization : "organization"

' Hvilke typer kan være author:person?
authorPerson <|.. practitioner
authorPerson <|.. practitionerrole
authorPerson <|.. patient
authorPerson <|.. relatedperson
authorPerson <|.. device

@enduml
